<svg width="56" height="56" viewBox="0 0 56 56" fill="none" xmlns="http://www.w3.org/2000/svg">
<path d="M28 55.1797C43.0109 55.1797 55.1797 43.0109 55.1797 28C55.1797 12.9891 43.0109 0.820312 28 0.820312C12.9891 0.820312 0.820312 12.9891 0.820312 28C0.820312 43.0109 12.9891 55.1797 28 55.1797Z" fill="#CBE2FF"/>
<path d="M28 0.820312C26.8295 0.820312 25.6763 0.894359 24.5448 1.03797C37.9243 2.73536 48.2694 14.1596 48.2694 28C48.2694 41.8404 37.9244 53.2646 24.5449 54.962C25.6764 55.1055 26.8295 55.1797 28.0001 55.1797C43.011 55.1797 55.1798 43.011 55.1798 28C55.1798 12.989 43.0109 0.820312 28 0.820312Z" fill="#BED8FB"/>
<path d="M34.7546 11.1135C34.7546 9.72535 33.6292 8.6001 32.2412 8.6001H23.5795C20.3847 8.6001 17.7948 11.19 17.7948 14.3848V20.8074H38.2018V14.4761C38.2018 13.0879 37.0764 11.9626 35.6883 11.9626H35.6037C35.1347 11.9625 34.7546 11.5824 34.7546 11.1135Z" fill="#365E7D"/>
<path d="M35.6883 11.9626H35.6036C35.1348 11.9626 34.7548 11.5826 34.7548 11.1138C34.7548 9.72559 33.6294 8.60034 32.2413 8.60034H31.2916V20.8077H38.2018V14.4763C38.2017 13.0879 37.0765 11.9626 35.6883 11.9626Z" fill="#2B4D66"/>
<path d="M47.7444 44.6516C47.7444 42.0185 46.0383 39.6888 43.5281 38.8941L36.1076 36.5447L28.0018 36.2598L19.8925 36.5447L12.472 38.8941C9.96177 39.6889 8.25574 42.0185 8.25574 44.6516V46.6787C13.1996 51.9028 20.1945 55.166 27.9517 55.1796C29.0583 55.1778 30.1502 55.1137 31.2243 54.9903C37.704 54.2245 43.4853 51.1793 47.7445 46.6787V44.6516H47.7444Z" fill="#4A80AA"/>
<path d="M47.7443 46.6786V44.6514C47.7443 42.7897 46.8907 41.0803 45.5036 39.9573C41.5636 47.9865 33.78 53.7879 24.5513 54.961C25.6653 55.1021 26.7997 55.1775 27.9515 55.1794C29.0582 55.1777 30.1501 55.1136 31.2241 54.9902C37.7037 54.2244 43.4852 51.1792 47.7443 46.6786Z" fill="#407093"/>
<path d="M33.3209 36.4467L28.0017 34.3765L22.6774 36.4468C21.4017 42.4967 26.1328 52.3445 27.5871 55.1741C27.7085 55.176 27.8296 55.1793 27.9515 55.1795C28.1055 55.1793 28.2586 55.1749 28.412 55.1723C29.8676 52.3402 34.5964 42.4953 33.3209 36.4467Z" fill="#E4F6FF"/>
<path d="M26.7383 43.6995L24.5869 52.1613L27.2923 55.1731C27.7684 55.1831 28.2409 55.1815 28.7176 55.1683L31.4185 52.1843L29.2618 43.6996H26.7383V43.6995Z" fill="#E28086"/>
<path d="M27.2889 55.1693C27.5091 55.1751 27.7299 55.179 27.9515 55.1793C28.2079 55.1789 28.4633 55.1744 28.7182 55.1673L30.0884 53.6533C29.0099 54.0316 27.9003 54.344 26.7644 54.5853L27.2889 55.1693Z" fill="#DD636E"/>
<path d="M32.5414 35.6636V30.8789H23.4553V35.6636C23.4553 38.1727 27.9984 40.9134 27.9984 40.9134C27.9984 40.9134 32.5414 38.1727 32.5414 35.6636Z" fill="#FFDDCE"/>
<path d="M38.2018 19.9646H36.465C35.4991 19.9646 34.716 19.1816 34.716 18.2156V17.2585C34.716 16.0002 33.485 15.1106 32.2903 15.5054C29.5041 16.4262 26.4956 16.4265 23.7093 15.5061L23.706 15.505C22.5114 15.1103 21.2806 16 21.2806 17.258V18.2156C21.2806 19.1815 20.4976 19.9646 19.5316 19.9646H17.7948V22.8247C17.7948 23.5555 18.3873 24.1479 19.118 24.1479C19.3486 24.1479 19.5363 24.3286 19.5507 24.5586C19.8297 28.9825 23.504 32.4847 27.9982 32.4847C32.4924 32.4847 36.1666 28.9825 36.4456 24.5586C36.4602 24.3285 36.6478 24.1479 36.8783 24.1479C37.6092 24.1479 38.2015 23.5554 38.2015 22.8247V19.9646H38.2018Z" fill="#FFDDCE"/>
<path d="M36.465 19.9645C35.4991 19.9645 34.716 19.1815 34.716 18.2155V17.2584C34.716 16.0001 33.485 15.1105 32.2903 15.5053C31.9603 15.6144 31.627 15.7095 31.2915 15.7927V25.2389C31.245 28.3123 29.5609 30.9872 27.0739 32.4329C27.3776 32.4659 27.6857 32.4845 27.9982 32.4845C32.4924 32.4845 36.1666 28.9823 36.4456 24.5584C36.4602 24.3283 36.6478 24.1477 36.8783 24.1477C37.6092 24.1477 38.2015 23.5552 38.2015 22.8245V19.9644H36.465V19.9645Z" fill="#FFCBBE"/>
<path d="M23.4552 34.3765L19.8923 37.2715L23.6287 41.8913C24.0831 42.3338 24.7987 42.3611 25.2855 41.9544L28.0953 39.6073L23.4552 34.3765Z" fill="#F4FBFF"/>
<path d="M32.543 34.3765L28.0952 39.6072L30.7362 41.8653C31.2201 42.2789 31.9388 42.2582 32.3978 41.8172L36.1075 37.2715L32.543 34.3765Z" fill="#F4FBFF"/>
<path d="M23.4553 34.3765L18.2258 36.9457C17.8276 37.1412 17.6677 37.6256 17.8711 38.0197L18.8956 40.0062C19.161 40.5209 19.0631 41.1482 18.6532 41.5574C18.4423 41.7679 18.2137 41.996 18.0158 42.1937C17.6613 42.5475 17.534 43.0702 17.6902 43.546C18.9271 47.3168 24.8806 53.0832 27.1336 55.1694C27.2851 55.1734 27.4369 55.1762 27.589 55.1778C25.9553 52 20.1654 39.9259 23.4553 34.3765Z" fill="#365E7D"/>
<path d="M37.3452 41.5574C36.9352 41.1482 36.8373 40.5209 37.1028 40.0062L38.1273 38.0197C38.3306 37.6256 38.1707 37.1412 37.7726 36.9457L32.543 34.3765C35.832 39.9245 30.0462 51.9933 28.4106 55.1752C28.5643 55.1726 28.7178 55.1688 28.8709 55.1636C31.1286 53.0726 37.0724 47.3133 38.3082 43.5459C38.4643 43.0701 38.337 42.5473 37.9826 42.1936C37.7845 41.996 37.556 41.7679 37.3452 41.5574Z" fill="#365E7D"/>
<path d="M28.0954 39.6072L25.3285 41.9179L26.7382 43.6996H29.2616L30.6715 41.8127L28.0954 39.6072Z" fill="#DD636E"/>
<path d="M56 28C56 12.5252 43.4769 0 28 0C12.5253 0 0 12.523 0 28C0 43.078 12.0572 55.7523 27.5506 55.9945C27.8137 56.0063 28.3853 55.9953 28.3964 55.9952C28.401 55.9953 28.4204 55.995 28.4256 55.9949C43.7103 55.7685 56 43.3129 56 28ZM28 1.64062C42.568 1.64062 54.3594 13.4299 54.3594 28C54.3594 34.0734 52.3177 39.8322 48.5615 44.4958C48.4962 41.5566 46.5904 39.0032 43.7756 38.1119L38.4686 36.4317C38.1683 36.1747 38.2473 36.2854 33.3617 33.8647V31.5911C35.4917 30.0787 36.9668 27.6911 37.238 24.9382C38.2494 24.7667 39.0222 23.8842 39.0222 22.8248C39.0222 21.2535 39.0222 16.0879 39.0222 14.4761C39.0222 12.6378 37.5267 11.1424 35.6884 11.1424H35.6037C35.588 11.1424 35.5752 11.1296 35.5752 11.1138C35.5752 9.27555 34.0797 7.78006 32.2415 7.78006H23.5798C19.9377 7.78006 16.9748 10.743 16.9748 14.3851C16.9748 14.8381 17.3421 15.2054 17.7951 15.2054C18.2481 15.2054 18.6154 14.8381 18.6154 14.3851C18.6154 11.6477 20.8424 9.42069 23.5798 9.42069H32.2415C33.1751 9.42069 33.9346 10.1802 33.9346 11.1138C33.9346 12.0342 34.6834 12.783 35.6037 12.783H35.6884C36.622 12.783 37.3815 13.5425 37.3815 14.4761V19.1445H36.4651C35.953 19.1445 35.5364 18.7278 35.5364 18.2159V17.2587C35.5364 15.4394 33.7602 14.1559 32.033 14.7268C29.4323 15.5864 26.5675 15.5866 23.9634 14.7264C22.2358 14.1559 20.4603 15.4394 20.4603 17.2584V18.2159C20.4603 18.728 20.0437 19.1446 19.5317 19.1446H18.6153V18.1763C18.6153 17.7232 18.248 17.356 17.795 17.356C17.342 17.356 16.9747 17.7232 16.9747 18.1763V22.8249C16.9747 23.8844 17.7473 24.7668 18.7588 24.9384C19.0299 27.6915 20.5051 30.0789 22.635 31.5913V33.8658C17.7594 36.2817 17.8239 36.1799 17.5289 36.4328L12.2245 38.1122C9.40975 39.0035 7.50389 41.5568 7.43859 44.496C3.68233 39.8322 1.64062 34.0734 1.64062 28C1.64062 13.4319 13.4299 1.64062 28 1.64062ZM18.5953 42.7744L19.2328 42.138C19.8983 41.4738 20.0557 40.4659 19.6246 39.6304L18.6132 37.6694L21.9279 36.0409C21.5752 37.5163 21.5867 39.1377 21.7565 40.6573C21.7567 40.6585 21.7569 40.6597 21.757 40.6608C22.1812 44.4498 23.7279 48.7476 25.2736 52.232C22.7281 49.6705 19.3263 45.9025 18.4696 43.2905C18.41 43.109 18.4582 42.9112 18.5953 42.7744ZM18.6152 20.7851H19.5316C20.9484 20.7851 22.1009 19.6325 22.1009 18.2158V17.2583C22.1009 16.5615 22.7796 16.0634 23.452 16.2852C26.3848 17.2539 29.615 17.2538 32.5478 16.2845C33.2123 16.065 33.8957 16.5585 33.8957 17.2587V18.2159C33.8957 19.6326 35.0483 20.7851 36.4651 20.7851H37.3815V22.8248C37.3815 23.1022 37.1559 23.3277 36.8785 23.3277C36.2185 23.3277 35.6688 23.8457 35.6272 24.5071C35.3741 28.5206 32.0231 31.6645 27.9984 31.6645C23.9737 31.6645 20.6227 28.5206 20.3696 24.5071C20.3279 23.8458 19.7782 23.3277 19.1182 23.3277C18.8408 23.3277 18.6153 23.1022 18.6153 22.8248V20.7851H18.6152ZM27.9992 54.1718C27.4669 53.1041 26.7481 51.583 26.0291 49.818L27.3761 44.5199H28.6238L29.97 49.8163C29.2496 51.585 28.5299 53.1076 27.9992 54.1718ZM26.9209 39.5195C26.4566 39.9073 25.5042 40.7029 24.7595 41.3248C24.6041 41.4547 24.3815 41.4539 24.2278 41.3276L23.3608 40.2556C23.2174 38.8176 23.2316 37.228 23.6807 35.8668L26.9209 39.5195ZM24.4919 43.0642C24.701 43.0642 24.91 43.0304 25.1121 42.9663L25.8433 43.8905L25.0172 47.1398C24.5441 45.7755 24.1175 44.3531 23.8039 42.9432C24.0261 43.0223 24.2585 43.0642 24.4919 43.0642ZM28.8506 42.8794H27.1353L26.4678 42.0358L28.0893 40.6813L29.556 41.9354L28.8506 42.8794ZM31.2694 41.2419L29.2503 39.5154L32.3271 35.897C32.7656 37.2486 32.7783 38.8145 32.6405 40.2228L31.8022 41.25C31.6467 41.3754 31.4239 41.3739 31.2694 41.2419ZM27.9984 33.3051C29.3184 33.3051 30.5783 33.0255 31.721 32.5229V34.0769L28.0823 38.3563L24.2756 34.0651V32.5228C25.4183 33.0255 26.6782 33.3051 27.9984 33.3051ZM30.9819 47.1373L30.1532 43.877L30.8982 42.8798C31.1071 42.9489 31.3238 42.985 31.5408 42.985C31.7674 42.985 31.9932 42.9452 32.2097 42.8704C31.8967 44.2958 31.4676 45.7364 30.9819 47.1373ZM9.07594 46.3468V44.6517C9.07594 42.3657 10.5402 40.3662 12.7195 39.6762L17.0929 38.2916C17.1367 38.3938 17.0917 38.2952 18.1665 40.3826C18.2688 40.5807 18.2315 40.8196 18.0738 40.977L17.4362 41.6134C16.8584 42.1901 16.6569 43.0288 16.9107 43.802C17.9577 46.9936 22.0768 51.4135 24.9038 54.1792C18.9015 53.4812 13.3615 50.7637 9.07594 46.3468ZM31.0943 54.1793C32.6189 52.688 34.5298 50.7066 36.1261 48.6998C36.4082 48.3452 36.3494 47.8291 35.9948 47.5471C35.6402 47.2651 35.1242 47.3238 34.8421 47.6784C33.554 49.2978 32.0481 50.9063 30.7211 52.2395C32.2715 48.746 33.824 44.4337 34.2443 40.633C34.2444 40.6316 34.2447 40.6302 34.2448 40.6289C34.4113 39.1194 34.4212 37.5118 34.0703 36.041L37.385 37.6695L36.3736 39.6305C35.9426 40.4662 36.1001 41.4739 36.7655 42.1383L37.403 42.7745C37.54 42.9113 37.5881 43.1091 37.5286 43.2906C37.4001 43.6824 37.2046 44.1224 36.9474 44.5985C36.7321 44.9972 36.8807 45.4949 37.2793 45.7101C37.6779 45.9255 38.1756 45.7768 38.3908 45.3783C38.6944 44.8165 38.9288 44.286 39.0876 43.8018C39.3412 43.0287 39.1398 42.1901 38.562 41.6133L37.9246 40.977C37.7669 40.8195 37.7296 40.5805 37.8317 40.3825C38.8987 38.3103 38.8623 38.3922 38.9056 38.2911L43.2803 39.6761C45.4598 40.3662 46.924 42.3656 46.924 44.6517V46.3468C42.648 50.7538 37.1116 53.4801 31.0943 54.1793Z" fill="black"/>
</svg>
