<svg width="9" height="18" viewBox="0 0 9 18" fill="none" xmlns="http://www.w3.org/2000/svg">
<path d="M1 14.5714H0.5V15.0714H1V14.5714ZM10 14.5714L10.3617 14.9167L10.6912 14.5714L10.3617 14.2262L10 14.5714ZM7.08895 10.7976C6.89828 10.5979 6.58178 10.5905 6.38203 10.7812C6.18229 10.9718 6.17493 11.2883 6.36559 11.4881L7.08895 10.7976ZM6.36559 17.6548C6.17493 17.8545 6.18229 18.171 6.38203 18.3617C6.58178 18.5523 6.89828 18.545 7.08895 18.3452L6.36559 17.6548ZM0.5 0V14.5714H1.5V0H0.5ZM1 15.0714H10V14.0714H1V15.0714ZM10.3617 14.2262L7.08895 10.7976L6.36559 11.4881L9.63832 14.9167L10.3617 14.2262ZM9.63832 14.2262L6.36559 17.6548L7.08895 18.3452L10.3617 14.9167L9.63832 14.2262Z" fill="#021518"/>
</svg>
