<svg width="18" height="19" viewBox="0 0 18 19" xmlns="http://www.w3.org/2000/svg">
<title>Github</title>
<path d="M8.99887 0.197754C4.02975 0.197754 0 4.468 0 9.73575C0 13.949 2.5785 17.5234 6.156 18.7857C6.606 18.8736 6.77025 18.5791 6.77025 18.3261C6.77025 18.0993 6.76237 17.4996 6.75787 16.704C4.25475 17.2799 3.726 15.4251 3.726 15.4251C3.31763 14.3231 2.727 14.0298 2.727 14.0298C1.90913 13.4384 2.78775 13.4503 2.78775 13.4503C3.69112 13.5179 4.16587 14.4335 4.16587 14.4335C4.96913 15.8906 6.273 15.4702 6.786 15.2256C6.867 14.6093 7.09987 14.1889 7.3575 13.9502C5.3595 13.7091 3.258 12.8909 3.258 9.237C3.258 8.19557 3.609 7.34413 4.185 6.67675C4.09163 6.43569 3.78338 5.4655 4.27275 4.15332C4.27275 4.15332 5.02875 3.89682 6.74775 5.13063C7.4655 4.91925 8.235 4.81357 9.00113 4.81C9.765 4.81475 10.5356 4.91925 11.2545 5.13182C12.9724 3.898 13.7272 4.1545 13.7272 4.1545C14.2177 5.46788 13.9095 6.43688 13.8172 6.67794C14.3944 7.34532 14.742 8.19675 14.742 9.23819C14.742 12.9016 12.6382 13.7079 10.6335 13.9443C10.9564 14.2388 11.2444 14.8206 11.2444 15.7101C11.2444 16.9854 11.2331 18.0138 11.2331 18.3261C11.2331 18.5814 11.3951 18.8783 11.8519 18.7845C15.4237 17.521 18 13.9478 18 9.73575C18 4.468 13.9703 0.197754 8.99887 0.197754Z" fill="#F55951"/>
</svg>
