<svg width="16" height="16" viewBox="0 0 16 16" fill="none" xmlns="http://www.w3.org/2000/svg">
	<title>Linkedin</title>
<g clip-path="url(#clip0)">
<path d="M15.9962 16V15.9993H16.0002V10.1313C16.0002 7.26065 15.3822 5.04932 12.0262 5.04932C10.4128 5.04932 9.33015 5.93465 8.88815 6.77398H8.84149V5.31732H5.65948V15.9993H8.97282V10.71C8.97282 9.31732 9.23682 7.97065 10.9615 7.97065C12.6608 7.97065 12.6862 9.55999 12.6862 10.7993V16H15.9962Z" fill="#F55951"/>
<path d="M0.26416 5.31812H3.58149V16.0001H0.26416V5.31812Z" fill="#F55951"/>
<path d="M1.92133 0C0.860667 0 0 0.860667 0 1.92133C0 2.982 0.860667 3.86067 1.92133 3.86067C2.982 3.86067 3.84267 2.982 3.84267 1.92133C3.842 0.860667 2.98133 0 1.92133 0V0Z" fill="#F55951"/>
</g>
<defs>
<clipPath id="clip0">
<rect width="16" height="16" fill="white"/>
</clipPath>
</defs>
</svg>
